<svg xmlns="http://www.w3.org/2000/svg" width="46" height="19" fill="currentColor" viewBox="0 0 46 19">
  <path d="M7.146 4.056 3.573 2.028 0 4.056V2.028L3.573 0l3.574 2.028v2.028ZM0 5.759h1.872v4.47c0 1.155.877 1.719 1.701 1.719.831 0 1.702-.579 1.702-1.734V5.759h1.872v4.577c0 1.064-.34 1.885-1.021 2.448-.681.563-1.532.836-2.569.836-1.036 0-1.887-.273-2.551-.836C.34 12.221 0 11.431 0 10.382V5.759Zm23.328 5.556a2.86 2.86 0 0 1-1.948.739c-1.342 0-2.243-.752-2.344-1.917h6.047s.04-.376.04-.729c0-1.095-.355-2.007-1.083-2.752-.71-.745-1.638-1.11-2.768-1.11-1.19 0-2.166.365-2.94 1.11-.757.745-1.144 1.718-1.144 2.935v.06c0 1.201.387 2.16 1.145 2.874.758.715 1.763 1.08 2.985 1.08 1.421 0 2.552-.551 3.4-1.501l-1.39-.789Zm-3.557-3.731c.417-.32.928-.487 1.5-.487.542 0 .99.167 1.377.502.37.305.569.68.586 1.11h-4.15c.06-.445.288-.82.687-1.125Zm22.399 7.054C41.41 16.401 40.616 17 39.398 17h-.845v-1.631h.683c.419 0 .809-.155 1.18-.997l.371-.843-3.202-7.77h1.903l2.274 5.596 2.336-5.596H46l-3.83 8.879ZM14.433 2.825v3.628c-.613-.54-1.567-.862-2.49-.862-1.099 0-2.026.38-2.784 1.155-.743.761-1.114 1.704-1.114 2.844 0 1.141.371 2.084 1.114 2.859.758.76 1.686 1.141 2.784 1.141 1.266 0 2.067-.49 2.49-.873v.705h1.857V2.825h-1.857Zm-.557 8.439c-.448.44-1.02.669-1.686.669a2.26 2.26 0 0 1-1.655-.67c-.432-.44-.65-1.003-.65-1.672 0-.67.217-1.232.65-1.673a2.26 2.26 0 0 1 1.655-.669c.665 0 1.238.228 1.686.669.464.441.697 1.003.697 1.673 0 .669-.233 1.232-.697 1.673ZM34.7 5.607c-1.41 0-2.143.575-2.645 1.129-.2-.377-.766-1.129-2.088-1.129-1.117 0-1.775.555-2.103.95V5.76h-1.84v7.664h1.84v-4.41c0-1.034.65-1.78 1.515-1.78.883 0 1.393.654 1.393 1.704v4.485h1.84v-4.41c0-1.049.634-1.779 1.547-1.779.882 0 1.392.654 1.392 1.703v4.486h1.856V8.677c0-1.998-1.092-3.071-2.707-3.071ZM3.191 16.367h-.66a.928.928 0 0 0-.105-.31.77.77 0 0 0-.447-.374.944.944 0 0 0-.31-.05.89.89 0 0 0-.523.16c-.152.105-.271.26-.357.464-.086.202-.13.45-.13.743 0 .298.044.549.13.753.087.203.206.356.357.46a.91.91 0 0 0 .521.154c.109 0 .21-.015.304-.046a.813.813 0 0 0 .45-.363.886.886 0 0 0 .11-.304l.66.004a1.612 1.612 0 0 1-.48.95c-.133.123-.287.22-.464.29a1.618 1.618 0 0 1-.589.102c-.318 0-.602-.08-.852-.238a1.618 1.618 0 0 1-.59-.686C.072 17.776 0 17.418 0 17c0-.42.072-.778.217-1.076.145-.3.343-.528.593-.686.25-.159.533-.238.848-.238.202 0 .39.03.563.091a1.41 1.41 0 0 1 .797.698c.088.168.146.361.173.578Zm.601 2.58v-3.894h2.355v.591H4.448v1.057h1.577v.592H4.448v1.063h1.713v.59H3.792Zm3.024 0v-3.894h1.358c.278 0 .512.052.7.156.19.104.333.25.43.437.098.187.147.404.147.652 0 .25-.05.467-.149.65a1.01 1.01 0 0 1-.433.425c-.19.098-.425.148-.704.148h-.967v-.586h.879a.952.952 0 0 0 .4-.072.488.488 0 0 0 .23-.215.736.736 0 0 0 .075-.35.759.759 0 0 0-.076-.353.498.498 0 0 0-.231-.225.898.898 0 0 0-.402-.077h-.6v3.304h-.657Zm1.87-1.764.897 1.764h-.732l-.88-1.764h.716Zm1.209-1.538v-.592h2.89v.591h-1.12v3.303h-.65v-3.302h-1.12Zm4.102-.592v3.894h-.656v-3.894h.656Zm.711 3.894v-3.894h2.32v.591h-1.664v1.057h1.504v.592h-1.504v1.654h-.656Zm3.572-3.894v3.894h-.655v-3.894h.656Zm.711 3.894v-3.894h2.355v.591h-1.699v1.057h1.577v.592h-1.577v1.063h1.713v.59h-2.369Zm4.251 0h-1.227v-3.894h1.252c.36 0 .669.078.927.234.26.155.458.377.597.667.14.29.209.638.209 1.042 0 .406-.07.754-.21 1.046a1.52 1.52 0 0 1-.603.67c-.262.157-.577.235-.945.235Zm-.57-.61h.539c.252 0 .462-.05.63-.149a.926.926 0 0 0 .381-.447c.085-.198.127-.447.127-.745s-.042-.545-.127-.741a.911.911 0 0 0-.377-.443 1.18 1.18 0 0 0-.615-.148h-.558v2.673Z"/>
</svg>
