<svg xmlns="http://www.w3.org/2000/svg" width="96" height="96" fill="none" viewBox="0 0 96 96">
  <path fill="#CCC" d="M90.42 28.875c-3.722-5.514-9.148-9.834-16.273-12.954-7.132-3.111-15.868-4.671-26.213-4.671-6.081 0-11.64.564-16.684 1.691-5.037 1.128-9.485 2.783-13.346 4.95-3.86 2.168-7.125 4.767-9.801 7.798-2.677 3.032-4.699 6.422-6.059 10.17C.684 39.617 0 43.659 0 48c0 7.234 1.882 13.627 5.654 19.184 3.765 5.558 9.214 9.878 16.339 12.953 7.125 3.075 15.772 4.613 25.94 4.613 6.17 0 11.802-.564 16.883-1.699 5.081-1.127 9.552-2.775 13.412-4.95 3.86-2.167 7.103-4.744 9.735-7.724a30.999 30.999 0 0 0 5.993-10.17C95.316 56.412 96 52.341 96 48c0-7.234-1.86-13.605-5.58-19.118v-.008Zm-11.993 15.45c-.927 2.189-2.317 4.393-4.17 6.596-1.853 2.205-4.294 4.43-7.323 6.671-3.03 2.24-6.64 4.423-10.831 6.539-6.904 3.492-12.963 5.616-18.191 6.385-5.228.768-9.552.468-12.963-.894-3.42-1.362-5.846-3.456-7.287-6.275-.86-1.691-1.331-3.529-1.412-5.52-.08-1.985.36-4.057 1.302-6.21.948-2.153 2.345-4.327 4.198-6.531 1.853-2.204 4.294-4.423 7.323-6.67 3.03-2.241 6.574-4.387 10.633-6.437 7.169-3.624 13.338-5.806 18.5-6.539 5.154-.725 9.448-.417 12.867.952 3.42 1.362 5.846 3.456 7.287 6.275a12.757 12.757 0 0 1 1.383 5.463c.059 1.947-.375 4.02-1.302 6.209l-.014-.015Z"/>
  <path fill="#CCC" d="M62.059 47.297c-.47-.19-1.302-.315-1.831-.461-2.338-.637-5.346-1.443-7.427-2.629-1.279-.732-1.595-1.647-2.051-2.987-.75-2.168-1.235-4.62-1.654-6.883-.125-.681-.192-1.545-.36-2.19-.111-.417-.486-.622-.905-.556-.272.044-.485.3-.552.556-.19.703-.257 1.64-.397 2.38-.463 2.49-1.058 5.668-2.117 7.952-.61 1.318-1.324 1.662-2.61 2.24-1.993.894-4.273 1.538-6.383 2.11-.53.146-1.36.263-1.838.46-.633.257-.618 1.143.022 1.392.456.176 1.176.286 1.676.417 2.36.637 5.464 1.457 7.56 2.666 1.315.754 1.617 1.713 2.087 3.082.978 2.878 1.471 5.983 1.986 8.97.228.725 1.14.783 1.448.08.544-3.06 1.03-6.253 2.052-9.196.478-1.384.786-2.24 2.125-2.98 2.147-1.187 5.117-1.985 7.5-2.629.426-.117 1.595-.315 1.882-.542.441-.359.309-1.054-.206-1.26l-.007.008Z"/>
</svg>
