<svg xmlns="http://www.w3.org/2000/svg" width="52" height="19" fill="currentColor" viewBox="0 0 52 19">
  <path d="m50.47 10.382 1.447.96c-.47.688-1.593 1.869-3.535 1.869-2.412 0-4.209-1.857-4.209-4.218 0-2.514 1.816-4.219 4.006-4.219 2.202 0 3.281 1.743 3.63 2.684l.191.48-5.675 2.337c.432.846 1.105 1.275 2.057 1.275s1.612-.467 2.088-1.168ZM46.02 8.86l3.79-1.566c-.21-.524-.832-.897-1.574-.897-.946 0-2.26.834-2.215 2.463ZM41.438.474h1.828v12.352h-1.828V.474Zm-2.882 4.629h1.764v7.502c0 3.113-1.847 4.395-4.03 4.395-2.057 0-3.295-1.377-3.758-2.494l1.618-.67c.292.688.997 1.503 2.14 1.503 1.402 0 2.266-.865 2.266-2.482v-.606h-.064c-.419.505-1.219.96-2.234.96-2.12 0-4.063-1.838-4.063-4.206 0-2.38 1.943-4.237 4.063-4.237 1.01 0 1.815.448 2.234.94h.064v-.605Zm.127 3.902c0-1.49-.997-2.576-2.267-2.576-1.282 0-2.36 1.086-2.36 2.576 0 1.472 1.078 2.539 2.36 2.539 1.27.006 2.267-1.067 2.267-2.539ZM22.16 8.974c0 2.43-1.905 4.218-4.24 4.218-2.337 0-4.24-1.793-4.24-4.218 0-2.444 1.904-4.225 4.24-4.225 2.335 0 4.24 1.78 4.24 4.225Zm-1.854 0c0-1.516-1.104-2.558-2.387-2.558-1.282 0-2.386 1.042-2.386 2.558 0 1.503 1.104 2.557 2.386 2.557 1.283 0 2.387-1.054 2.387-2.557Zm11.114.019c0 2.43-1.903 4.218-4.24 4.218-2.335 0-4.24-1.787-4.24-4.218 0-2.444 1.905-4.219 4.24-4.219 2.337 0 4.24 1.768 4.24 4.219Zm-1.859 0c0-1.516-1.105-2.558-2.387-2.558s-2.386 1.042-2.386 2.558c0 1.502 1.104 2.557 2.386 2.557 1.289 0 2.387-1.06 2.387-2.557ZM6.71 11.36c-2.66 0-4.742-2.134-4.742-4.78 0-2.646 2.082-4.78 4.741-4.78 1.435 0 2.482.562 3.257 1.282l1.276-1.27C10.162.783 8.722 0 6.709 0 3.066 0 0 2.955 0 6.58s3.066 6.58 6.71 6.58c1.967 0 3.453-.644 4.614-1.844 1.194-1.187 1.562-2.854 1.562-4.205 0-.423-.051-.86-.108-1.181H6.709v1.755h4.323c-.127 1.1-.476 1.85-.99 2.362-.622.625-1.606 1.314-3.333 1.314Zm-3.519 5.007h-.66a.928.928 0 0 0-.105-.31.77.77 0 0 0-.447-.374.944.944 0 0 0-.31-.05.89.89 0 0 0-.523.16c-.152.105-.271.26-.357.464-.086.202-.13.45-.13.743 0 .298.044.549.13.753.087.203.206.356.357.46a.91.91 0 0 0 .521.154c.109 0 .21-.015.304-.046a.813.813 0 0 0 .45-.363.886.886 0 0 0 .11-.304l.66.004a1.612 1.612 0 0 1-.48.95c-.133.123-.287.22-.464.29a1.618 1.618 0 0 1-.589.102c-.318 0-.602-.08-.852-.238a1.618 1.618 0 0 1-.59-.686C.072 17.776 0 17.418 0 17c0-.42.072-.778.217-1.076.145-.3.343-.528.593-.686.25-.159.533-.238.848-.238.202 0 .39.03.563.091a1.41 1.41 0 0 1 .797.698c.088.168.146.361.173.578Zm.601 2.58v-3.894h2.355v.591H4.448v1.057h1.577v.592H4.448v1.063h1.713v.59H3.792Zm3.024 0v-3.894h1.358c.278 0 .512.052.7.156.19.104.333.25.43.437.098.187.147.404.147.652 0 .25-.05.467-.149.65a1.01 1.01 0 0 1-.433.425c-.19.098-.425.148-.704.148h-.967v-.586h.879a.952.952 0 0 0 .4-.072.488.488 0 0 0 .23-.215.736.736 0 0 0 .075-.35.759.759 0 0 0-.076-.353.498.498 0 0 0-.231-.225.898.898 0 0 0-.402-.077h-.6v3.304h-.657Zm1.87-1.764.897 1.764h-.732l-.88-1.764h.716Zm1.209-1.538v-.592h2.89v.591h-1.12v3.303h-.65v-3.302h-1.12Zm4.102-.592v3.894h-.656v-3.894h.656Zm.711 3.894v-3.894h2.32v.591h-1.664v1.057h1.504v.592h-1.504v1.654h-.656Zm3.572-3.894v3.894h-.655v-3.894h.656Zm.711 3.894v-3.894h2.355v.591h-1.699v1.057h1.577v.592h-1.577v1.063h1.713v.59h-2.369Zm4.251 0h-1.227v-3.894h1.252c.36 0 .669.078.927.234.26.155.458.377.597.667.14.29.209.638.209 1.042 0 .406-.07.754-.21 1.046a1.52 1.52 0 0 1-.603.67c-.262.157-.577.235-.945.235Zm-.57-.61h.539c.252 0 .462-.05.63-.149a.926.926 0 0 0 .381-.447c.085-.198.127-.447.127-.745s-.042-.545-.127-.741a.911.911 0 0 0-.377-.443 1.18 1.18 0 0 0-.615-.148h-.558v2.673Z"/>
</svg>
